<svg version="1" id="Layer_1" xmlns="http://www.w3.org/2000/svg" x="0" y="0" width="32" height="32" viewBox="0 0 32 32" xml:space="preserve"><title>color palette 1</title><g class="nc-icon-wrapper"><path fill="#EF4D4D" d="M12 31a1 1 0 0 1-1 1H1a1 1 0 0 1-1-1V1a1 1 0 0 1 1-1h10a1 1 0 0 1 1 1v30z"/><path fill="#EACA44" d="M20.762 4.021L11.557.114a1 1 0 0 0-1.312.529L0 24.779v5.192L4.779 32H9.97L21.29 5.332a.997.997 0 0 0-.528-1.311z"/><path fill="#84BF56" d="M27.921 11.15L20.85 4.079a.999.999 0 0 0-1.414 0L0 23.516v4.969L3.516 32h4.969l19.437-19.436a1 1 0 0 0-.001-1.414z"/><path fill="#469FCC" d="M31.888 20.443l-3.907-9.205a1 1 0 0 0-1.311-.53L0 22.03v5.188L2.03 32h5.19l24.138-10.246a.999.999 0 0 0 .53-1.311z"/><path fill="#EAEAEA" d="M1 32a1 1 0 0 1-1-1V21a1 1 0 0 1 1-1h30a1 1 0 0 1 1 1v10a1 1 0 0 1-1 1H1z"/><circle fill="#434854" cx="6" cy="26" r="2"/><path opacity=".15" d="M0 21a1 1 0 0 1 1-1h30c.494 0 .886.364.967.836a.993.993 0 0 0-.079-.393L31.275 19H0v2z"/><path opacity=".15" d="M4.318 19.197L3.516 20h1.267l21.888-9.292a.983.983 0 0 1 .871.062l-1.006-1.006-22.218 9.433z"/><path opacity=".1" d="M2.135 20h1.381l15.92-15.921a.98.98 0 0 1 .831-.269l-1.363-.579L2.135 20z"/><path d="M11.391.079c-.055-.023-.118-.022-.178-.036.059.003.118.022.178.036z" opacity=".2"/><path opacity=".15" d="M11 0H9.423L.934 20h1.095L10.246.643a1 1 0 0 1 .922-.609C11.11.023 11.06 0 11 0z"/></g></svg>