<svg xmlns="http://www.w3.org/2000/svg" width="560" height="16" viewBox="0 0 560 16"><g transform="translate(0 0)"><g class="nc-icon-wrapper" stroke-width="1" fill="#111111" stroke="#111111"><line x1="11.5" y1="15.5" x2="4.5" y2="15.5" fill="none" stroke="#111111" stroke-linecap="round" stroke-linejoin="round"/><polyline points="0.5 5.5 0.5 0.5 5.5 0.5" fill="none" stroke-linecap="round" stroke-linejoin="round" data-color="color-2"/><line x1="5.5" y1="5.5" x2="0.5" y2="0.5" fill="none" stroke-linecap="round" stroke-linejoin="round" data-color="color-2"/><line x1="15.5" y1="0.5" x2="0.5" y2="15.5" fill="none" stroke="#111111" stroke-linecap="round" stroke-linejoin="round"/><path d="M3.5,12.5h-2a1,1,0,0,1-1-1v-4" fill="none" stroke="#111111" stroke-linecap="round" stroke-linejoin="round"/><path d="M15.5,3.5v8a1,1,0,0,1-1,1h-8" fill="none" stroke="#111111" stroke-linecap="round" stroke-linejoin="round"/><line x1="7.5" y1="0.5" x2="15.5" y2="0.5" fill="none" stroke="#111111" stroke-linecap="round" stroke-linejoin="round"/></g></g><g transform="translate(16 0)"><g class="nc-icon-wrapper" fill="#111111"><polygon points="0 0 6 0 3.707 2.293 6.978 5.564 5.564 6.978 2.293 3.707 0 6 0 0" data-color="color-2"/><polygon points="6.242 14 13 14 13 16 4.242 16 6.242 14" fill="#111111"/><path d="M10.242,10H14V6.242l2-2V11a.945.945,0,0,1-1,1H8.242Z" fill="#111111"/><path d="M0,11V8.828l2-2V10H4.586l8-8H6.828l2-2H15a1,1,0,0,1,.707,1.707l-14,14A1,1,0,0,1,.293,14.293L2.586,12H1A.945.945,0,0,1,0,11Z" fill="#111111"/></g></g><g transform="translate(32 0)"><g class="nc-icon-wrapper" stroke-width="1" fill="#111111" stroke="#111111"><line x1="11.5" y1="15.5" x2="4.5" y2="15.5" fill="none" stroke="#111111" stroke-linecap="round" stroke-linejoin="round"/><path d="M7.5.5h7a1,1,0,0,1,1,1v10a1,1,0,0,1-1,1H1.5a1,1,0,0,1-1-1v-4" fill="none" stroke="#111111" stroke-linecap="round" stroke-linejoin="round"/><polyline points="0.5 5.5 0.5 0.5 5.5 0.5" fill="none" stroke-linecap="round" stroke-linejoin="round" data-color="color-2"/><line x1="5.5" y1="5.5" x2="0.5" y2="0.5" fill="none" stroke-linecap="round" stroke-linejoin="round" data-color="color-2"/></g></g><g transform="translate(48 0)"><g class="nc-icon-wrapper" fill="#111111"><rect x="3" y="14" width="10" height="2" fill="#111111"/><path d="M2,6.828V10H14V2H6.828l2-2H15a.945.945,0,0,1,1,1V11a.945.945,0,0,1-1,1H1a.945.945,0,0,1-1-1V8.828Z" fill="#111111"/><polygon points="0 0 6 0 3.707 2.293 6.978 5.564 5.564 6.978 2.293 3.707 0 6 0 0" data-color="color-2"/></g></g><g transform="translate(64 0)"><g class="nc-icon-wrapper" fill="#111111"><path d="M16,0,9,3l1.293,1.293-10,10a1,1,0,1,0,1.414,1.414l10-10L13,7Z" fill="#111111"/></g></g><g transform="translate(80 0)"><g class="nc-icon-wrapper" stroke-width="1" fill="#111111" stroke="#111111"><line x1="1.5" y1="14.5" x2="10" y2="6" fill="none" stroke-linecap="round" stroke-linejoin="round" data-color="color-2"/><polygon points="8.5 4.5 14.5 1.5 11.5 7.5 8.5 4.5" fill="none" stroke="#111111" stroke-linecap="round" stroke-linejoin="round"/></g></g><g transform="translate(96 0)"><g class="nc-icon-wrapper" stroke-width="1" fill="#111111" stroke="#111111"><polyline points="0.5 6.5 2.75 0.5 3.25 0.5 5.5 6.5" fill="none" stroke-linecap="round" stroke-linejoin="round" data-color="color-2"/><line x1="1.25" y1="4.5" x2="4.75" y2="4.5" fill="none" stroke-linecap="round" stroke-linejoin="round" data-color="color-2"/><polyline points="0.5 9.5 5.5 9.5 0.5 15.5 5.5 15.5" fill="none" stroke-linecap="round" stroke-linejoin="round" data-color="color-2"/><line x1="11.5" y1="0.5" x2="11.5" y2="15.5" fill="none" stroke="#111111" stroke-linecap="round" stroke-linejoin="round"/><polyline points="7.5 11.5 11.5 15.5 15.5 11.5" fill="none" stroke="#111111" stroke-linecap="round" stroke-linejoin="round"/></g></g><g transform="translate(112 0)"><g class="nc-icon-wrapper" fill="#111111"><path d="M5.473,7,5.13,5.693H2.865L2.512,7H.442L2.717,0H5.23l2.3,7ZM4.739,4.149,4.438,3c-.069-.255-.155-.584-.255-.987s-.166-.693-.2-.868q-.042.243-.169.8t-.56,2.2Z" data-color="color-2"/><path d="M6.714,16H1.261V14.831l3.031-4.3H1.333V9H6.638v1.164L3.607,14.473H6.714Z" data-color="color-2"/><polygon points="13 11 13 0 11 0 11 11 8 11 12 16 16 11 13 11" fill="#111111"/></g></g><g transform="translate(128 0)"><g class="nc-icon-wrapper" stroke-width="1" fill="#111111" stroke="#111111"><polyline points="3.5 9.5 5.5 11.5 7.5 9.5" fill="none" stroke-linecap="round" stroke-linejoin="round" data-color="color-2"/><line x1="5.5" y1="11.5" x2="5.5" y2="0.928" fill="none" stroke-linecap="round" stroke-linejoin="round" data-color="color-2"/><polyline points="8.5 6.5 10.5 4.5 12.5 6.5" fill="none" stroke-linecap="round" stroke-linejoin="round" data-color="color-2"/><line x1="10.5" y1="4.5" x2="10.5" y2="15.072" fill="none" stroke-linecap="round" stroke-linejoin="round" data-color="color-2"/><circle cx="8" cy="8" r="7.5" fill="none" stroke="#111111" stroke-linecap="round" stroke-linejoin="round"/></g></g><g transform="translate(144 0)"><g class="nc-icon-wrapper" fill="#111111"><path d="M8,0a8,8,0,1,0,8,8A8,8,0,0,0,8,0ZM5,12,2,9H4V4H6V9H8Zm7-5v5H10V7H8l3-3,3,3Z" fill="#111111"/></g></g><g transform="translate(160 0)"><g class="nc-icon-wrapper" stroke-width="1" fill="#111111" stroke="#111111"><polyline fill="none" stroke-linecap="round" stroke-linejoin="round" stroke-miterlimit="10" points="4,11 1.5,8.5 4,6 " data-color="color-2"/> <polyline fill="none" stroke-linecap="round" stroke-linejoin="round" stroke-miterlimit="10" points="13,11 15.5,8.5 13,6 " data-color="color-2"/> <line fill="none" stroke-linecap="round" stroke-linejoin="round" stroke-miterlimit="10" x1="6.5" y1="8.5" x2="1.5" y2="8.5" data-color="color-2"/> <line fill="none" stroke-linecap="round" stroke-linejoin="round" stroke-miterlimit="10" x1="15.5" y1="8.5" x2="10.5" y2="8.5" data-color="color-2"/> <polyline fill="none" stroke="#111111" stroke-linecap="round" stroke-linejoin="round" stroke-miterlimit="10" points="6,4 8.5,1.5 11,4 "/> <polyline fill="none" stroke="#111111" stroke-linecap="round" stroke-linejoin="round" stroke-miterlimit="10" points="6,13 8.5,15.5 11,13 "/> <line fill="none" stroke="#111111" stroke-linecap="round" stroke-linejoin="round" stroke-miterlimit="10" x1="8.5" y1="6.5" x2="8.5" y2="1.5"/> <line fill="none" stroke="#111111" stroke-linecap="round" stroke-linejoin="round" stroke-miterlimit="10" x1="8.5" y1="15.5" x2="8.5" y2="10.5"/></g></g><g transform="translate(176 0)"><g class="nc-icon-wrapper" stroke-width="1" fill="#111111" stroke="#111111"><line fill="none" stroke-linecap="round" stroke-linejoin="round" stroke-miterlimit="10" x1="8.5" y1="15.5" x2="8.5" y2="1.5" data-color="color-2"/> <line fill="none" stroke-linecap="round" stroke-linejoin="round" stroke-miterlimit="10" x1="15.5" y1="8.5" x2="1.5" y2="8.5" data-color="color-2"/> <polyline fill="none" stroke="#111111" stroke-linecap="round" stroke-linejoin="round" stroke-miterlimit="10" points="6,4 8.5,1.5 11,4 "/> <polyline fill="none" stroke="#111111" stroke-linecap="round" stroke-linejoin="round" stroke-miterlimit="10" points="6,13 8.5,15.5 11,13 "/> <polyline fill="none" stroke="#111111" stroke-linecap="round" stroke-linejoin="round" stroke-miterlimit="10" points="4,11 1.5,8.5 4,6 "/> <polyline fill="none" stroke="#111111" stroke-linecap="round" stroke-linejoin="round" stroke-miterlimit="10" points="13,11 15.5,8.5 13,6 "/></g></g><g transform="translate(192 0)"><g class="nc-icon-wrapper" stroke-width="1" fill="#111111" stroke="#111111"><polygon fill="none" stroke="#111111" stroke-linecap="round" stroke-linejoin="round" stroke-miterlimit="10" points="7.5,1.5 14.5,1.5 14.5,8.5 "/> <polygon fill="none" stroke-linecap="round" stroke-linejoin="round" stroke-miterlimit="10" points="8.5,14.5 1.5,14.5 1.5,7.5 " data-color="color-2"/></g></g><g transform="translate(208 0)"><g class="nc-icon-wrapper" stroke-width="1" fill="#111111" stroke="#111111"><path fill="none" stroke="#111111" stroke-linecap="round" stroke-linejoin="round" d="M0.5,4.5v-3c0-0.552,0.448-1,1-1h3"/> <path fill="none" stroke="#111111" stroke-linecap="round" stroke-linejoin="round" d="M11.5,0.5h3c0.552,0,1,0.448,1,1v3"/> <path fill="none" stroke="#111111" stroke-linecap="round" stroke-linejoin="round" d="M15.5,11.5v3c0,0.552-0.448,1-1,1h-3"/> <path fill="none" stroke="#111111" stroke-linecap="round" stroke-linejoin="round" d="M4.5,15.5h-3c-0.552,0-1-0.448-1-1v-3"/> <rect x="4.5" y="4.5" fill="none" stroke-linecap="round" stroke-linejoin="round" width="7" height="7" data-color="color-2"/></g></g><g transform="translate(224 0)"><g class="nc-icon-wrapper" stroke-width="1" fill="#111111" stroke="#111111"><polyline fill="none" stroke-linecap="round" stroke-linejoin="round" stroke-miterlimit="10" points="5.5,3.5 8.5,0.5 11.5,3.5 " data-color="color-2"/> <line fill="none" stroke-linecap="round" stroke-linejoin="round" stroke-miterlimit="10" x1="8.5" y1="0.5" x2="8.5" y2="10.5" data-color="color-2"/> <polyline fill="none" stroke="#111111" stroke-linecap="round" stroke-linejoin="round" stroke-miterlimit="10" points="11.5,6.5 14.5,6.5 15.5,15.5 1.5,15.5 2.5,6.5 5.5,6.5 "/></g></g><g transform="translate(240 0)"><g class="nc-icon-wrapper" stroke-width="1" fill="#111111" stroke="#111111"><path fill="none" stroke-linecap="round" stroke-linejoin="round" stroke-miterlimit="10" d="M8.5,15.5 c1.13,0,2.198-0.268,3.144-0.744" data-color="color-2"/> <path fill="none" stroke-linecap="round" stroke-linejoin="round" stroke-miterlimit="10" d="M3.306,13.193 c0.616,0.682,1.365,1.242,2.206,1.639" data-color="color-2"/> <path fill="none" stroke-linecap="round" stroke-linejoin="round" stroke-miterlimit="10" d="M1.5,8.5 c0,0.881,0.163,1.724,0.46,2.5" data-color="color-2"/> <path fill="none" stroke="#111111" stroke-linecap="round" stroke-linejoin="round" stroke-miterlimit="10" d="M13.797,13.076 C14.858,11.849,15.5,10.25,15.5,8.5c0-3.866-3.134-7-7-7c-2.636,0-4.828,1.641-6,4"/> <polyline fill="none" stroke="#111111" stroke-linecap="round" stroke-linejoin="round" stroke-miterlimit="10" points="2.5,0.5 2.5,5.5 7.5,5.5 "/></g></g><g transform="translate(256 0)"><g class="nc-icon-wrapper" stroke-width="1" fill="#111111" stroke="#111111"><path fill="none" stroke-linecap="round" stroke-linejoin="round" stroke-miterlimit="10" d="M15,7.634 C13.364,6.3,11.276,5.5,9,5.5c-3.607,0-6.891,2.039-8.5,5" data-color="color-2"/> <polyline fill="none" stroke="#111111" stroke-linecap="round" stroke-linejoin="round" stroke-miterlimit="10" points="0.5,5.5 0.5,10.5 5.5,10.5 "/></g></g><g transform="translate(272 0)"><g class="nc-icon-wrapper" stroke-width="1" fill="#111111" stroke="#111111"><polygon fill="none" stroke="#111111" stroke-linecap="round" stroke-linejoin="round" stroke-miterlimit="10" points="15.5,11.5 8,0.5 0.5,11.5 "/> <line fill="none" stroke-linecap="round" stroke-linejoin="round" stroke-miterlimit="10" x1="15.5" y1="14.5" x2="0.5" y2="14.5" data-color="color-2"/></g></g><g transform="translate(288 0)"><g class="nc-icon-wrapper" stroke-width="1" fill="#111111" stroke="#111111"><polygon fill="none" stroke="#111111" stroke-linecap="round" stroke-linejoin="round" stroke-miterlimit="10" points="15.5,14.5 8,3.5 0.5,14.5 "/> <line fill="none" stroke-linecap="round" stroke-linejoin="round" stroke-miterlimit="10" x1="15.5" y1="0.5" x2="0.5" y2="0.5" data-color="color-2"/></g></g><g transform="translate(304 0)"><g class="nc-icon-wrapper" stroke-width="1" fill="#111111" stroke="#111111"><polygon fill="none" stroke="#111111" stroke-linecap="round" stroke-linejoin="round" stroke-miterlimit="10" points="1.5,0.5 12.5,8 1.5,15.5 "/> <line fill="none" stroke-linecap="round" stroke-linejoin="round" stroke-miterlimit="10" x1="15.5" y1="0.5" x2="15.5" y2="15.5" data-color="color-2"/></g></g><g transform="translate(320 0)"><g class="nc-icon-wrapper" stroke-width="1" fill="#111111" stroke="#111111"><polygon fill="none" stroke="#111111" stroke-linecap="round" stroke-linejoin="round" stroke-miterlimit="10" points="15.5,13.5 8,1.5 0.5,13.5 "/></g></g><g transform="translate(336 0)"><g class="nc-icon-wrapper" stroke-width="1" fill="#111111" stroke="#111111"><polygon fill="none" stroke="#111111" stroke-linecap="round" stroke-linejoin="round" stroke-miterlimit="10" points="2.5,0.5 14.5,8 2.5,15.5 "/></g></g><g transform="translate(352 0)"><g class="nc-icon-wrapper" stroke-width="1" fill="#111111" stroke="#111111"><polygon fill="none" stroke="#111111" stroke-linecap="round" stroke-linejoin="round" stroke-miterlimit="10" points="4.5,0.5 15.5,8 4.5,15.5 "/> <line fill="none" stroke-linecap="round" stroke-linejoin="round" stroke-miterlimit="10" x1="1.5" y1="0.5" x2="1.5" y2="15.5" data-color="color-2"/></g></g><g transform="translate(368 0)"><g class="nc-icon-wrapper" stroke-width="1" fill="#111111" stroke="#111111"><polygon fill="none" stroke="#111111" stroke-linecap="round" stroke-linejoin="round" stroke-miterlimit="10" points="14.5,0.5 3.5,8 14.5,15.5 "/> <line fill="none" stroke-linecap="round" stroke-linejoin="round" stroke-miterlimit="10" x1="0.5" y1="0.5" x2="0.5" y2="15.5" data-color="color-2"/></g></g><g transform="translate(384 0)"><g class="nc-icon-wrapper" stroke-width="1" fill="#111111" stroke="#111111"><polygon fill="none" stroke="#111111" stroke-linecap="round" stroke-linejoin="round" stroke-miterlimit="10" points="11.5,0.5 0.5,8 11.5,15.5 "/> <line fill="none" stroke-linecap="round" stroke-linejoin="round" stroke-miterlimit="10" x1="14.5" y1="0.5" x2="14.5" y2="15.5" data-color="color-2"/></g></g><g transform="translate(400 0)"><g class="nc-icon-wrapper" stroke-width="1" fill="#111111" stroke="#111111"><polygon fill="none" stroke="#111111" stroke-linecap="round" stroke-linejoin="round" stroke-miterlimit="10" points="15.5,1.5 8,12.5 0.5,1.5 "/> <line fill="none" stroke-linecap="round" stroke-linejoin="round" stroke-miterlimit="10" x1="15.5" y1="15.5" x2="0.5" y2="15.5" data-color="color-2"/></g></g><g transform="translate(416 0)"><g class="nc-icon-wrapper" stroke-width="1" fill="#111111" stroke="#111111"><polygon fill="none" stroke="#111111" stroke-linecap="round" stroke-linejoin="round" stroke-miterlimit="10" points="13.5,0.5 1.5,8 13.5,15.5 "/></g></g><g transform="translate(432 0)"><g class="nc-icon-wrapper" stroke-width="1" fill="#111111" stroke="#111111"><polygon fill="none" stroke="#111111" stroke-linecap="round" stroke-linejoin="round" stroke-miterlimit="10" points="15.5,4.5 8,15.5 0.5,4.5 "/> <line fill="none" stroke-linecap="round" stroke-linejoin="round" stroke-miterlimit="10" x1="15.5" y1="1.5" x2="0.5" y2="1.5" data-color="color-2"/></g></g><g transform="translate(448 0)"><g class="nc-icon-wrapper" stroke-width="1" fill="#111111" stroke="#111111"><polygon fill="none" stroke="#111111" stroke-linecap="round" stroke-linejoin="round" stroke-miterlimit="10" points="15.5,2.5 8,14.5 0.5,2.5 "/></g></g><g transform="translate(464 0)"><g class="nc-icon-wrapper" stroke-width="1" fill="#111111" stroke="#111111"><polyline fill="none" stroke-linecap="round" stroke-linejoin="round" stroke-miterlimit="10" points="15.5,3.5 8.5,10.5 4.5,6.5 0.5,10.5 " data-color="color-2"/> <polyline fill="none" stroke="#111111" stroke-linecap="round" stroke-linejoin="round" stroke-miterlimit="10" points="9.5,3.5 15.5,3.5 15.5,9.5 "/></g></g><g transform="translate(480 0)"><g class="nc-icon-wrapper" stroke-width="1" fill="#111111" stroke="#111111"><polyline fill="none" stroke-linecap="round" stroke-linejoin="round" stroke-miterlimit="10" points="0.5,3.5 7.5,10.5 11.5,6.5 15.5,10.5 " data-color="color-2"/> <polyline fill="none" stroke="#111111" stroke-linecap="round" stroke-linejoin="round" stroke-miterlimit="10" points="6.5,3.5 0.5,3.5 0.5,9.5 "/></g></g><g transform="translate(496 0)"><g class="nc-icon-wrapper" stroke-width="1" fill="#111111" stroke="#111111"><line fill="none" stroke-linecap="round" stroke-linejoin="round" stroke-miterlimit="10" x1="8.5" y1="15.5" x2="8.5" y2="0.5" data-color="color-2"/> <polyline fill="none" stroke="#111111" stroke-linecap="round" stroke-linejoin="round" stroke-miterlimit="10" points="3.5,5.5 8.5,0.5 13.5,5.5 "/></g></g><g transform="translate(512 0)"><g class="nc-icon-wrapper" stroke-width="1" fill="#111111" stroke="#111111"><line fill="none" stroke-linecap="round" stroke-linejoin="round" stroke-miterlimit="10" x1="8.5" y1="15.5" x2="8.5" y2="6.5" data-color="color-2"/> <polygon fill="none" stroke="#111111" stroke-linecap="round" stroke-linejoin="round" stroke-miterlimit="10" points="13.5,6.5 8.5,0.5 3.5,6.5 "/></g></g><g transform="translate(528 0)"><g class="nc-icon-wrapper" stroke-width="1" fill="#111111" stroke="#111111"><line fill="none" stroke-linecap="round" stroke-linejoin="round" stroke-miterlimit="10" x1="0.5" y1="8.5" x2="9.5" y2="8.5" data-color="color-2"/> <polygon fill="none" stroke="#111111" stroke-linecap="round" stroke-linejoin="round" stroke-miterlimit="10" points="9.5,3.5 15.5,8.5 9.5,13.5 "/></g></g><g transform="translate(544 0)"><g class="nc-icon-wrapper" stroke-width="1" fill="#111111" stroke="#111111"><line fill="none" stroke-linecap="round" stroke-linejoin="round" stroke-miterlimit="10" x1="15.5" y1="8.5" x2="6.5" y2="8.5" data-color="color-2"/> <polygon fill="none" stroke="#111111" stroke-linecap="round" stroke-linejoin="round" stroke-miterlimit="10" points="6.5,3.5 0.5,8.5 6.5,13.5 "/></g></g></svg>